<svg width="77" height="23" viewBox="0 0 77 23" fill="none" xmlns="http://www.w3.org/2000/svg">
<path d="M10.1999 19.6468C9.11445 19.6468 8.09015 19.4388 7.12695 19.0226C6.16376 18.6065 5.32376 18.04 4.60695 17.3231C3.89001 16.6063 3.32348 15.7663 2.90737 14.8031C2.49126 13.8399 2.2832 12.8156 2.2832 11.7301C2.2832 10.6361 2.49126 9.60966 2.90737 8.65077C3.32348 7.69188 3.89001 6.85403 4.60695 6.13723C5.32376 5.42028 6.16376 4.85375 7.12695 4.43764C8.09015 4.02153 9.11445 3.81348 10.1999 3.81348C11.2939 3.81348 12.3204 4.02153 13.2792 4.43764C14.2381 4.85375 15.076 5.42028 15.7928 6.13723C16.5097 6.85403 17.0763 7.69188 17.4924 8.65077C17.9085 9.60966 18.1165 10.6361 18.1165 11.7301C18.1165 12.8156 17.9085 13.8399 17.4924 14.8031C17.0763 15.7663 16.5097 16.6063 15.7928 17.3231C15.076 18.04 14.2381 18.6065 13.2792 19.0226C12.3204 19.4388 11.2939 19.6468 10.1999 19.6468ZM10.1999 18.3791C10.6251 17.8151 10.9831 17.2462 11.2736 16.6724C11.5642 16.0987 11.8008 15.4715 11.9836 14.791H8.41612C8.60959 15.4929 8.84897 16.1308 9.13424 16.7045C9.41938 17.2783 9.77459 17.8365 10.1999 18.3791ZM8.58612 18.1499C8.26668 17.6916 7.9798 17.1706 7.7255 16.5868C7.47119 16.0029 7.27355 15.4043 7.13258 14.791H4.3057C4.74584 15.6564 5.33612 16.3835 6.07654 16.9722C6.81695 17.5608 7.65348 17.9534 8.58612 18.1499ZM11.8136 18.1499C12.7463 17.9534 13.5828 17.5608 14.3232 16.9722C15.0636 16.3835 15.6539 15.6564 16.094 14.791H13.2672C13.0994 15.4096 12.8883 16.0108 12.634 16.5947C12.3799 17.1786 12.1064 17.697 11.8136 18.1499ZM3.78154 13.541H6.87945C6.82709 13.2313 6.78911 12.9276 6.76549 12.6299C6.74202 12.3324 6.73029 12.0325 6.73029 11.7301C6.73029 11.4278 6.74202 11.1279 6.76549 10.8304C6.78911 10.5327 6.82709 10.229 6.87945 9.91931H3.78154C3.7014 10.2024 3.64001 10.4967 3.59737 10.8022C3.55459 11.1078 3.5332 11.4171 3.5332 11.7301C3.5332 12.0432 3.55459 12.3525 3.59737 12.6581C3.64001 12.9636 3.7014 13.2579 3.78154 13.541ZM8.12924 13.541H12.2705C12.3227 13.2313 12.3606 12.9303 12.3842 12.6381C12.4077 12.3458 12.4195 12.0432 12.4195 11.7301C12.4195 11.4171 12.4077 11.1144 12.3842 10.8222C12.3606 10.53 12.3227 10.229 12.2705 9.91931H8.12924C8.07702 10.229 8.03911 10.53 8.01549 10.8222C7.99202 11.1144 7.98029 11.4171 7.98029 11.7301C7.98029 12.0432 7.99202 12.3458 8.01549 12.6381C8.03911 12.9303 8.07702 13.2313 8.12924 13.541ZM13.5203 13.541H16.6182C16.6983 13.2579 16.7597 12.9636 16.8024 12.6581C16.8451 12.3525 16.8665 12.0432 16.8665 11.7301C16.8665 11.4171 16.8451 11.1078 16.8024 10.8022C16.7597 10.4967 16.6983 10.2024 16.6182 9.91931H13.5203C13.5726 10.229 13.6106 10.5327 13.6342 10.8304C13.6577 11.1279 13.6695 11.4278 13.6695 11.7301C13.6695 12.0325 13.6577 12.3324 13.6342 12.6299C13.6106 12.9276 13.5726 13.2313 13.5203 13.541ZM13.2672 8.66931H16.094C15.6486 7.7932 15.0624 7.06612 14.3353 6.48806C13.6082 5.91014 12.7676 5.51487 11.8136 5.30223C12.1331 5.78723 12.4172 6.31771 12.6661 6.89368C12.9151 7.46952 13.1155 8.06139 13.2672 8.66931ZM8.41612 8.66931H11.9836C11.7901 7.97264 11.5468 7.33077 11.2536 6.74369C10.9603 6.1566 10.609 5.60243 10.1999 5.08118C9.7907 5.60243 9.43945 6.1566 9.14612 6.74369C8.85293 7.33077 8.60959 7.97264 8.41612 8.66931ZM4.3057 8.66931H7.13258C7.28424 8.06139 7.48459 7.46952 7.73362 6.89368C7.98251 6.31771 8.26668 5.78723 8.58612 5.30223C7.62668 5.51487 6.7848 5.91153 6.06049 6.49223C5.33605 7.07278 4.75112 7.79848 4.3057 8.66931Z" fill="white"/>
<path d="M32.7471 16.3135V17.54H26.7236V16.3135H32.7471ZM27.0283 6.16504V17.54H25.5205V6.16504H27.0283ZM31.9502 11.0557V12.2822H26.7236V11.0557H31.9502ZM32.6689 6.16504V7.39941H26.7236V6.16504H32.6689ZM35.8408 10.8916V17.54H34.3955V9.08691H35.7627L35.8408 10.8916ZM35.4971 12.9932L34.8955 12.9697C34.9007 12.3916 34.9867 11.8577 35.1533 11.3682C35.32 10.8734 35.5544 10.4437 35.8564 10.0791C36.1585 9.71452 36.5179 9.43327 36.9346 9.23535C37.3564 9.03223 37.8226 8.93066 38.333 8.93066C38.7497 8.93066 39.1247 8.98796 39.458 9.10254C39.7913 9.21191 40.0752 9.389 40.3096 9.63379C40.5492 9.87858 40.7314 10.1963 40.8564 10.5869C40.9814 10.9723 41.0439 11.4437 41.0439 12.001V17.54H39.5908V11.9854C39.5908 11.5426 39.5257 11.1885 39.3955 10.9229C39.2653 10.652 39.0752 10.4567 38.8252 10.3369C38.5752 10.2119 38.2679 10.1494 37.9033 10.1494C37.5439 10.1494 37.2158 10.2249 36.9189 10.376C36.6273 10.527 36.3747 10.7354 36.1611 11.001C35.9528 11.2666 35.7887 11.5713 35.6689 11.915C35.5544 12.2536 35.4971 12.613 35.4971 12.9932ZM48.7158 9.08691H50.0283V17.3604C50.0283 18.1051 49.8773 18.7406 49.5752 19.2666C49.2731 19.7926 48.8512 20.1911 48.3096 20.4619C47.7731 20.738 47.1533 20.876 46.4502 20.876C46.1585 20.876 45.8148 20.8291 45.4189 20.7354C45.0283 20.6468 44.6429 20.4932 44.2627 20.2744C43.8877 20.0609 43.5726 19.7718 43.3174 19.4072L44.0752 18.5479C44.4294 18.9749 44.7992 19.2718 45.1846 19.4385C45.5752 19.6051 45.9606 19.6885 46.3408 19.6885C46.7992 19.6885 47.195 19.6025 47.5283 19.4307C47.8617 19.2588 48.1195 19.0036 48.3018 18.665C48.4893 18.3317 48.583 17.9202 48.583 17.4307V10.9463L48.7158 9.08691ZM42.8955 13.4072V13.2432C42.8955 12.5973 42.971 12.0114 43.1221 11.4854C43.2783 10.9541 43.4997 10.4984 43.7861 10.1182C44.0778 9.73796 44.4294 9.44629 44.8408 9.24316C45.2523 9.03483 45.7158 8.93066 46.2314 8.93066C46.7627 8.93066 47.2262 9.02441 47.6221 9.21191C48.0231 9.39421 48.3617 9.66243 48.6377 10.0166C48.9189 10.3656 49.1403 10.7874 49.3018 11.2822C49.4632 11.777 49.5752 12.3369 49.6377 12.9619V13.6807C49.5804 14.3005 49.4684 14.8577 49.3018 15.3525C49.1403 15.8473 48.9189 16.2692 48.6377 16.6182C48.3617 16.9671 48.0231 17.2354 47.6221 17.4229C47.221 17.6051 46.7523 17.6963 46.2158 17.6963C45.7106 17.6963 45.2523 17.5895 44.8408 17.376C44.4346 17.1624 44.0856 16.863 43.7939 16.4775C43.5023 16.0921 43.2783 15.639 43.1221 15.1182C42.971 14.5921 42.8955 14.0218 42.8955 13.4072ZM44.3408 13.2432V13.4072C44.3408 13.8291 44.3825 14.2249 44.4658 14.5947C44.5544 14.9645 44.6872 15.29 44.8643 15.5713C45.0465 15.8525 45.2783 16.0739 45.5596 16.2354C45.8408 16.3916 46.1768 16.4697 46.5674 16.4697C47.0465 16.4697 47.4424 16.3682 47.7549 16.165C48.0674 15.9619 48.3148 15.6937 48.4971 15.3604C48.6846 15.027 48.8304 14.665 48.9346 14.2744V12.3916C48.8773 12.1051 48.7887 11.8291 48.6689 11.5635C48.5544 11.2926 48.4033 11.0531 48.2158 10.8447C48.0335 10.6312 47.807 10.4619 47.5361 10.3369C47.2653 10.2119 46.9476 10.1494 46.583 10.1494C46.1872 10.1494 45.846 10.2327 45.5596 10.3994C45.2783 10.5609 45.0465 10.7848 44.8643 11.0713C44.6872 11.3525 44.5544 11.6807 44.4658 12.0557C44.3825 12.4255 44.3408 12.8213 44.3408 13.2432ZM53.7939 5.54004V17.54H52.3408V5.54004H53.7939ZM57.6846 9.08691V17.54H56.2314V9.08691H57.6846ZM56.1221 6.84473C56.1221 6.61035 56.1924 6.41243 56.333 6.25098C56.4788 6.08952 56.6924 6.00879 56.9736 6.00879C57.2497 6.00879 57.4606 6.08952 57.6064 6.25098C57.7575 6.41243 57.833 6.61035 57.833 6.84473C57.833 7.06868 57.7575 7.26139 57.6064 7.42285C57.4606 7.5791 57.2497 7.65723 56.9736 7.65723C56.6924 7.65723 56.4788 7.5791 56.333 7.42285C56.1924 7.26139 56.1221 7.06868 56.1221 6.84473ZM64.9268 15.2979C64.9268 15.0895 64.8799 14.8968 64.7861 14.7197C64.6976 14.5374 64.5127 14.3734 64.2314 14.2275C63.9554 14.0765 63.5387 13.9463 62.9814 13.8369C62.5127 13.738 62.0882 13.6208 61.708 13.4854C61.333 13.3499 61.0127 13.1859 60.7471 12.9932C60.4867 12.8005 60.2861 12.5739 60.1455 12.3135C60.0049 12.0531 59.9346 11.7484 59.9346 11.3994C59.9346 11.0661 60.0075 10.751 60.1533 10.4541C60.3044 10.1572 60.5153 9.89421 60.7861 9.66504C61.0622 9.43587 61.3929 9.25618 61.7783 9.12598C62.1637 8.99577 62.5934 8.93066 63.0674 8.93066C63.7445 8.93066 64.3226 9.05046 64.8018 9.29004C65.2809 9.52962 65.6481 9.84993 65.9033 10.251C66.1585 10.6468 66.2861 11.0869 66.2861 11.5713H64.8408C64.8408 11.3369 64.7705 11.1104 64.6299 10.8916C64.4945 10.6676 64.2939 10.4827 64.0283 10.3369C63.7679 10.1911 63.4476 10.1182 63.0674 10.1182C62.6663 10.1182 62.3408 10.1807 62.0908 10.3057C61.846 10.4255 61.6663 10.5791 61.5518 10.7666C61.4424 10.9541 61.3877 11.152 61.3877 11.3604C61.3877 11.5166 61.4137 11.6572 61.4658 11.7822C61.5231 11.902 61.6221 12.014 61.7627 12.1182C61.9033 12.2171 62.1012 12.3109 62.3564 12.3994C62.6117 12.488 62.9372 12.5765 63.333 12.665C64.0257 12.8213 64.596 13.0088 65.0439 13.2275C65.4919 13.4463 65.8252 13.7145 66.0439 14.0322C66.2627 14.3499 66.3721 14.7354 66.3721 15.1885C66.3721 15.5583 66.2939 15.8968 66.1377 16.2041C65.9867 16.5114 65.7653 16.777 65.4736 17.001C65.1872 17.2197 64.8434 17.3916 64.4424 17.5166C64.0465 17.6364 63.6012 17.6963 63.1064 17.6963C62.3617 17.6963 61.7314 17.5635 61.2158 17.2979C60.7002 17.0322 60.3096 16.6885 60.0439 16.2666C59.7783 15.8447 59.6455 15.3994 59.6455 14.9307H61.0986C61.1195 15.3265 61.234 15.6416 61.4424 15.876C61.6507 16.1051 61.9059 16.2692 62.208 16.3682C62.5101 16.4619 62.8096 16.5088 63.1064 16.5088C63.5023 16.5088 63.833 16.4567 64.0986 16.3525C64.3695 16.2484 64.5752 16.1051 64.7158 15.9229C64.8564 15.7406 64.9268 15.5322 64.9268 15.2979ZM69.7158 5.54004V17.54H68.2705V5.54004H69.7158ZM69.3721 12.9932L68.7705 12.9697C68.7757 12.3916 68.8617 11.8577 69.0283 11.3682C69.195 10.8734 69.4294 10.4437 69.7314 10.0791C70.0335 9.71452 70.3929 9.43327 70.8096 9.23535C71.2314 9.03223 71.6976 8.93066 72.208 8.93066C72.6247 8.93066 72.9997 8.98796 73.333 9.10254C73.6663 9.21191 73.9502 9.389 74.1846 9.63379C74.4242 9.87858 74.6064 10.1963 74.7314 10.5869C74.8564 10.9723 74.9189 11.4437 74.9189 12.001V17.54H73.4658V11.9854C73.4658 11.5426 73.4007 11.1885 73.2705 10.9229C73.1403 10.652 72.9502 10.4567 72.7002 10.3369C72.4502 10.2119 72.1429 10.1494 71.7783 10.1494C71.4189 10.1494 71.0908 10.2249 70.7939 10.376C70.5023 10.527 70.2497 10.7354 70.0361 11.001C69.8278 11.2666 69.6637 11.5713 69.5439 11.915C69.4294 12.2536 69.3721 12.613 69.3721 12.9932Z" fill="white"/>
</svg>
