<svg width="115" height="45" viewBox="0 0 115 45" fill="none" xmlns="http://www.w3.org/2000/svg">
<g clip-path="url(#clip0_149_15322)">
<g clip-path="url(#clip1_149_15322)">
<mask id="mask0_149_15322" style="mask-type:luminance" maskUnits="userSpaceOnUse" x="5" y="10" width="106" height="19">
<path d="M111 10.0103H5V28.9368H111V10.0103Z" fill="white"/>
</mask>
<g mask="url(#mask0_149_15322)">
<path d="M67.2654 10.0103V17.4536C67.9685 16.9749 68.7591 16.6395 69.592 16.4666C70.4248 16.2937 71.2836 16.2868 72.1191 16.4462C72.9547 16.6056 73.7506 16.9282 74.4613 17.3956C75.172 17.8629 75.7836 18.4659 76.261 19.1698L76.3382 19.2759C77.0604 20.4051 77.3921 21.7401 77.2824 23.076C77.1727 24.4119 76.6276 25.6748 75.7308 26.671C74.7124 27.8458 73.2926 28.5987 71.7488 28.7825C70.9925 28.9127 70.2177 28.8893 69.4706 28.7138C68.7236 28.5382 68.0195 28.214 67.4004 27.7605C67.3136 28.0305 67.2558 28.2426 67.1786 28.4933H64.2861V10.6949L67.2654 10.0103ZM74.3327 22.6023C74.3552 21.8991 74.1687 21.2051 73.7969 20.6079C73.425 20.0107 72.8845 19.5372 72.2435 19.2472C71.6026 18.9571 70.8901 18.8636 70.196 18.9785C69.502 19.0933 68.8575 19.4113 68.3442 19.8923C67.8308 20.3734 67.4716 20.9958 67.3119 21.6809C67.1522 22.366 67.1992 23.0831 67.447 23.7416C67.6948 24.4 68.1322 24.9702 68.7039 25.38C69.2757 25.7899 69.9561 26.0211 70.6593 26.0443H70.7364C71.6662 26.0524 72.5624 25.6972 73.2342 25.0543C73.9059 24.4113 74.3001 23.5315 74.3327 22.6023Z" fill="#D1D7DC"/>
<path d="M8.47119 24.5305C8.72854 24.9165 9.05967 25.2478 9.44555 25.5054C9.83142 25.763 10.2644 25.9417 10.7196 26.0313C11.1748 26.1209 11.6432 26.1196 12.098 26.0275C12.5527 25.9354 12.9847 25.7543 13.3691 25.4946C13.5675 25.363 13.7517 25.2112 13.9187 25.0415C14.0351 24.8922 14.1953 24.783 14.3769 24.7294C14.5584 24.6758 14.7522 24.6804 14.9311 24.7426C15.6349 24.9354 16.3484 25.0993 17.2451 25.3211C16.8695 25.9021 16.4539 26.4562 16.0013 26.9794C15.1807 27.8494 14.1271 28.4648 12.9662 28.7521C11.8052 29.0393 10.5862 28.9862 9.45463 28.5992C8.30182 28.2781 7.26953 27.6237 6.48734 26.718C5.70516 25.8123 5.20792 24.6957 5.05805 23.5085C4.8507 21.9348 5.24349 20.3408 6.15825 19.0437C7.07301 17.7466 8.44265 16.8416 9.99456 16.5086C10.8177 16.3146 11.6712 16.2857 12.5057 16.4234C13.3401 16.5611 14.139 16.8628 14.8562 17.311C15.5734 17.7593 16.1947 18.3452 16.6841 19.0349C17.1736 19.7246 17.5215 20.5045 17.7079 21.3294C17.7032 21.384 17.7032 21.4388 17.7079 21.4934C17.9007 22.3707 17.8718 22.4575 16.9751 22.6311L9.02076 24.4148C8.83196 24.4187 8.64556 24.458 8.47119 24.5305ZM7.89269 22.1393L14.2562 20.6931C13.887 20.1001 13.3424 19.6368 12.698 19.3672C12.0536 19.0977 11.3412 19.0354 10.6598 19.189C9.93779 19.3068 9.27493 19.6599 8.77445 20.1935C8.27398 20.7271 7.96397 21.4112 7.89269 22.1393Z" fill="#D1D7DC"/>
<path d="M101.802 24.5304C102.279 25.2678 103.016 25.7985 103.866 26.0165C104.717 26.2345 105.619 26.1239 106.391 25.7067C106.673 25.5792 106.926 25.3955 107.134 25.1667C107.519 24.6075 107.973 24.6654 108.522 24.8293C109.072 24.9932 109.785 25.1282 110.45 25.2921C109.974 26.3566 109.197 27.2582 108.214 27.8857C106.785 28.8243 105.042 29.1576 103.368 28.8123C101.694 28.467 100.226 27.4714 99.2854 26.0441C98.8228 25.3783 98.4952 24.6281 98.3213 23.8362C98.1712 23.0168 98.1844 22.1758 98.3602 21.3616C98.5361 20.5473 98.871 19.7758 99.3458 19.0913C99.8206 18.4069 100.426 17.823 101.127 17.3731C101.828 16.9233 102.611 16.6163 103.431 16.47H103.643C105.081 16.2604 106.547 16.5376 107.808 17.2574C109.07 17.9773 110.054 19.0984 110.605 20.4423C110.758 20.9329 110.884 21.4319 110.981 21.9368C111.077 22.3321 110.894 22.5056 110.489 22.5924C107.78 23.1902 105.07 23.8073 102.361 24.4243L101.802 24.5304ZM107.587 20.6737C107.136 19.9721 106.446 19.4569 105.646 19.2231C104.845 18.9892 103.987 19.0524 103.229 19.401C102.004 19.941 101.088 21.204 101.301 22.091L107.587 20.6737Z" fill="#D1D7DC"/>
<path d="M32.8844 24.5308C33.1351 25.4082 34.7163 26.247 36.0083 26.1024C36.9403 26.0234 37.8098 25.6007 38.4476 24.9165C38.519 24.841 38.6061 24.7821 38.7027 24.7438C38.7993 24.7054 38.9031 24.6887 39.0068 24.6947C39.8263 24.849 40.6362 25.0514 41.5522 25.2539C41.127 26.1911 40.4618 26.9993 39.6239 27.5968C38.9528 28.1096 38.1873 28.4853 37.3711 28.7022C36.5549 28.9192 35.7039 28.9733 34.8668 28.8614C34.0297 28.7495 33.2228 28.4738 32.4922 28.05C31.7617 27.6262 31.1217 27.0627 30.609 26.3916C29.9884 25.5834 29.5717 24.6375 29.3941 23.6341C29.1292 22.0168 29.5073 20.3599 30.4478 19.0177C31.3883 17.6755 32.8164 16.7543 34.427 16.4511C36.0822 16.1081 37.8059 16.4336 39.222 17.3566C40.6381 18.2796 41.6318 19.7252 41.9861 21.378C42.1982 22.3421 42.1693 22.3421 41.263 22.5832L33.4243 24.3572L32.8844 24.5308ZM38.6694 20.6741C38.2497 20.0273 37.6272 19.5382 36.8996 19.2834C36.1719 19.0286 35.3802 19.0227 34.6488 19.2665C33.5593 19.5846 32.2191 20.9152 32.3637 22.1011L38.6694 20.6741Z" fill="#D1D7DC"/>
<path d="M46.2674 17.3861L47.4244 16.7594C48.5471 16.1486 49.8663 16.0087 51.0921 16.3703C52.3179 16.7319 53.35 17.5654 53.9614 18.6877C54.3546 19.4094 54.5601 20.2184 54.5592 21.0402V28.5511H51.8499C51.4161 28.5511 51.5221 28.2136 51.5221 27.9726V22.6697C51.5187 22.1563 51.4768 21.6438 51.3968 21.1367C51.1268 19.7097 50.1434 19.0733 48.5043 19.2083C47.905 19.221 47.3352 19.4706 46.9196 19.9025C46.5039 20.3344 46.2764 20.9134 46.2867 21.5127C46.282 21.5349 46.282 21.5579 46.2867 21.5802V27.799C46.2867 28.3679 46.1614 28.6186 45.5443 28.5703C44.9273 28.5221 44.0306 28.5703 43.2207 28.5703V17.2125C43.2207 16.6533 43.4039 16.5087 43.9245 16.5376C44.4573 16.5762 44.9922 16.5762 45.525 16.5376C46.0168 16.4894 46.3928 16.5955 46.2674 17.3861Z" fill="#D1D7DC"/>
<path d="M17.0527 16.5374H19.9452C20.1477 16.5374 20.4176 16.8749 20.5044 17.1159C21.3914 19.3817 22.2592 21.6571 23.1269 23.9325C23.2137 24.1639 23.3101 24.3857 23.4644 24.7424C23.609 24.4435 23.7054 24.2507 23.7922 24.0579C24.6889 21.7535 25.5856 19.4492 26.4533 17.1255C26.6268 16.6724 26.8293 16.4699 27.3403 16.4988H30.0689C29.6832 17.463 29.3458 18.3211 28.9987 19.1792C27.7838 22.1295 26.5626 25.0799 25.3349 28.0302C25.2939 28.1876 25.1968 28.3245 25.0618 28.4151C24.9267 28.5057 24.7632 28.5437 24.6021 28.5219H22.3556C22.2355 28.5078 22.1202 28.4666 22.0184 28.4014C21.9165 28.3363 21.8307 28.249 21.7675 28.1459C20.2152 24.4725 18.6918 20.7122 17.1684 17.0291C17.1179 16.8683 17.0793 16.7039 17.0527 16.5374Z" fill="#D1D7DC"/>
<path d="M60.5748 11.543V15.795C60.5748 16.4024 60.7677 16.6049 61.3462 16.547C61.776 16.5085 62.2083 16.5085 62.6381 16.547C62.7924 16.547 63.0431 16.7302 63.0431 16.8459V19.4106H60.6038V28.5316H57.6148C57.5184 28.5316 57.3642 28.1555 57.3642 27.9531V19.4395H55.9179C55.4358 19.4395 55.378 19.3527 55.3876 18.9671V17.0291C55.3876 16.682 55.5323 16.5663 55.8697 16.5663C56.2072 16.5663 57.0267 16.6724 57.2099 16.4313C57.3579 15.9579 57.4071 15.4591 57.3545 14.9658V12.7097C57.3545 12.5265 57.5088 12.2276 57.6438 12.189C58.5886 11.9383 59.5528 11.7648 60.5748 11.543Z" fill="#D1D7DC"/>
<path d="M92.6803 12.2856H95.9199V16.0651C95.9199 16.4411 96.0452 16.5954 96.4116 16.5858C96.9254 16.5568 97.4404 16.5568 97.9543 16.5858C98.0478 16.6014 98.1358 16.6406 98.21 16.6996C98.2842 16.7587 98.3422 16.8356 98.3785 16.9232V19.43H96.6912C96.1513 19.43 95.8813 19.5554 95.8909 20.2014V28.4932H92.7381V20.1242C92.7381 19.6421 92.6032 19.4493 92.1114 19.4879C91.6197 19.5264 91.263 19.4879 90.752 19.4879V16.9136C90.752 16.7979 90.9544 16.6725 91.0798 16.5858C91.2051 16.499 91.234 16.5858 91.3208 16.5858C92.7092 16.5858 92.7092 16.5858 92.7092 15.1877L92.6803 12.2856Z" fill="#D1D7DC"/>
<path d="M81.5167 28.5996H78.7785C78.3061 28.5996 78.4218 28.2428 78.4121 27.9729V17.0971C78.4121 16.6729 78.5568 16.5186 78.981 16.5283H81.4589C81.4742 16.8132 81.5097 17.0968 81.565 17.3767L85.0456 16.4126V19.4979C84.6021 19.5654 84.1393 19.6136 83.6861 19.71C83.3785 19.7319 83.0783 19.8146 82.8029 19.9533C82.5274 20.0919 82.2822 20.2838 82.0814 20.5178C81.8806 20.7518 81.7281 21.0233 81.6328 21.3166C81.5376 21.6099 81.5014 21.9191 81.5264 22.2265C81.5216 22.2584 81.5216 22.2909 81.5264 22.3229V27.7993L81.5167 28.5996Z" fill="#D1D7DC"/>
<path d="M89.3261 28.5225H86.4336C86.4336 28.2622 86.4336 28.0501 86.4336 27.838V17.2322C86.4336 16.6922 86.5782 16.4994 87.1182 16.538C87.6581 16.5765 88.3908 16.538 89.0465 16.538C89.3454 16.538 89.49 16.6344 89.49 16.9622V28.3393C89.4461 28.4092 89.3906 28.4711 89.3261 28.5225Z" fill="#D1D7DC"/>
<path d="M87.9173 10.2799C88.4125 10.2793 88.8889 10.4691 89.2479 10.8102C89.6068 11.1512 89.8209 11.6173 89.8456 12.1118C89.8456 12.6232 89.6425 13.1137 89.2808 13.4753C88.9192 13.8369 88.4287 14.0401 87.9173 14.0401C87.3938 14.0505 86.8873 13.8537 86.5081 13.4926C86.1289 13.1315 85.9077 12.6352 85.8926 12.1118C85.9049 11.8584 85.9671 11.61 86.0756 11.3808C86.1841 11.1515 86.3368 10.9459 86.5249 10.7758C86.7129 10.6056 86.9328 10.4742 87.1717 10.3891C87.4106 10.304 87.664 10.2669 87.9173 10.2799Z" fill="#D1D7DC"/>
</g>
</g>
</g>
<defs>
<clipPath id="clip0_149_15322">
<rect width="115" height="44" fill="white" transform="translate(0 0.0102539)"/>
</clipPath>
<clipPath id="clip1_149_15322">
<rect width="115" height="44" fill="white" transform="translate(0 0.0102539)"/>
</clipPath>
</defs>
</svg>
