<svg width="115" height="45" viewBox="0 0 115 45" fill="none" xmlns="http://www.w3.org/2000/svg">
<g clip-path="url(#clip0_149_15289)">
<g clip-path="url(#clip1_149_15289)">
<mask id="mask0_149_15289" style="mask-type:luminance" maskUnits="userSpaceOnUse" x="5" y="7" width="106" height="31">
<path d="M111 7.01025H5V37.0103H111V7.01025Z" fill="white"/>
</mask>
<g mask="url(#mask0_149_15289)">
<path d="M83.1642 29.7338C79.5445 29.7338 77.2952 27.6433 77.2952 24.2738C77.2952 20.7767 79.3708 18.601 82.7128 18.601H82.9932C83.4124 18.601 83.9896 18.6147 84.7781 18.7128V14.4917H87.1389V29.3533C87.1389 29.3533 84.8958 29.7338 83.1642 29.7338ZM83.143 20.4542C80.8561 20.4542 79.7442 21.6849 79.7442 24.2151C79.7442 26.4869 81.0859 27.899 83.2415 27.899C83.6559 27.899 84.1305 27.8717 84.7774 27.8165V20.6056C84.1312 20.5019 83.6101 20.4542 83.143 20.4542ZM50.8274 29.3928L44.4503 18.2976L44.4482 29.3928H42.2256V15.3467H45.3372L51.7143 26.3431L51.7116 15.3467H53.9636V29.3928H50.8274ZM71.1404 29.609C70.0667 29.609 68.9472 29.489 67.6143 29.2333L67.47 29.206V27.2438L67.6807 27.2888C68.8562 27.539 69.8711 27.7524 70.8867 27.7524C71.7066 27.7524 73.6167 27.6242 73.6167 26.4208C73.6167 25.4117 72.2968 25.1581 71.2368 24.9556L71.1698 24.9419C70.9715 24.9051 70.7848 24.8676 70.6275 24.8281C69.0723 24.4258 67.4133 23.821 67.4133 21.7435C67.4133 19.7172 69.0217 18.556 71.827 18.556C73.1735 18.556 74.1508 18.6992 74.9365 18.8165L75.3181 18.8724V20.7767L75.115 20.7399C74.226 20.5769 73.1838 20.4092 72.1819 20.4092C71.0679 20.4092 69.746 20.6172 69.746 21.6051C69.746 22.4253 70.8278 22.6599 72.0807 22.9319C73.8328 23.3097 76.0048 23.7842 76.0048 26.1678C76.0048 28.3544 74.2335 29.609 71.1404 29.609ZM93.7662 29.609C91.3228 29.609 89.0598 29.1794 89.0598 26.069C89.0598 22.6838 92.5592 22.6838 94.6512 22.6838C94.8591 22.6838 95.8425 22.7294 96.1441 22.7424C96.1413 20.8435 96.1174 20.3908 93.3552 20.3908C92.2604 20.3908 91.0444 20.6063 89.9708 20.7985L89.7656 20.8353V18.9603L89.9037 18.931C91.1484 18.6788 92.3486 18.556 93.572 18.556C96.2487 18.556 98.5164 18.8247 98.5164 22.1356V29.356L98.3537 29.3744C96.4997 29.5817 95.0273 29.609 93.7662 29.609ZM94.5924 24.359C92.5749 24.359 91.3248 24.6549 91.3248 26.1276C91.3248 27.8322 92.9196 27.9733 94.4159 27.9733C94.974 27.9733 95.9786 27.9017 96.2856 27.8799V24.4176C95.8534 24.3992 94.7284 24.359 94.5924 24.359ZM60.6416 29.609C58.1947 29.609 55.9325 29.1794 55.9325 26.069C55.9325 22.6838 59.4318 22.6838 61.5231 22.6838C61.7317 22.6838 62.7171 22.7294 63.0194 22.7424C63.0167 20.8435 62.99 20.3908 60.2279 20.3908C59.1323 20.3908 57.9164 20.6063 56.8427 20.7985L56.6375 20.8353V18.9603L56.7791 18.931C57.985 18.6824 59.2132 18.5568 60.4446 18.556C63.1206 18.556 65.389 18.8247 65.389 22.1356V29.356L65.2256 29.3744C63.3723 29.5817 61.8999 29.609 60.6416 29.609ZM61.4643 24.359C59.4476 24.359 58.2002 24.6549 58.2002 26.1276C58.2002 27.8322 59.7922 27.9733 61.2885 27.9733C61.8493 27.9733 62.8539 27.9017 63.161 27.8799V24.4176C62.7253 24.3992 61.6004 24.359 61.4643 24.359Z" fill="#D1D7DC"/>
<mask id="mask1_149_15289" style="mask-type:alpha" maskUnits="userSpaceOnUse" x="100" y="17" width="11" height="18">
<path d="M100.058 17.9189H110.335V34.2825H100.058V17.9189Z" fill="#D1D7DC"/>
</mask>
<g mask="url(#mask1_149_15289)">
<path d="M107.916 34.1652V29.5575C106.995 29.6857 106.506 29.6857 106.111 29.6857C105.175 29.6857 104.136 29.4832 103.332 29.145C101.531 28.3984 100.458 26.503 100.458 24.0709C100.458 22.8573 100.755 20.638 102.739 19.4421C103.736 18.8489 104.911 18.5952 106.68 18.5952C107.312 18.5952 108.167 18.643 108.993 18.6907L110.334 18.7602V33.0975L107.916 34.1652ZM106.503 20.4491C104.104 20.4484 102.888 21.6689 102.888 24.0709C102.888 27.1637 104.702 27.8134 106.227 27.8134C106.598 27.8134 107.015 27.8134 107.939 27.6962V20.5159C107.216 20.4682 106.881 20.4491 106.503 20.4491Z" fill="#D1D7DC"/>
</g>
<mask id="mask2_149_15289" style="mask-type:alpha" maskUnits="userSpaceOnUse" x="22" y="7" width="19" height="23">
<path d="M22.0967 7.021H40.5612V29.5101H22.0967V7.021Z" fill="#D1D7DC"/>
</mask>
<g mask="url(#mask2_149_15289)">
<path d="M31.6788 7.021L23.8703 28.4096C23.7738 28.673 23.6048 28.9039 23.3828 29.076C23.1607 29.2481 22.8945 29.3543 22.6147 29.3826V29.3928H30.8691C31.5153 29.3928 32.0686 28.9831 32.2744 28.4103L40.0856 7.021H31.6788Z" fill="#D1D7DC"/>
</g>
<path d="M21.9414 29.0683C22.4201 29.0683 22.8394 28.831 23.0958 28.4717C23.1225 28.4342 23.2162 28.3033 23.2825 28.1253L26.1466 20.2762L24.4711 15.6924C24.3735 15.4603 24.2154 15.2584 24.0132 15.1077C23.811 14.9569 23.5721 14.8629 23.3212 14.8352C23.0703 14.8075 22.8165 14.8472 22.5862 14.9502C22.3558 15.0532 22.1573 15.2158 22.0112 15.421C21.9838 15.4585 21.8724 15.6256 21.8245 15.7674L18.9604 23.6137L20.6434 28.216C20.7526 28.469 20.9337 28.6845 21.1644 28.836C21.3951 28.9874 21.6652 29.0682 21.9414 29.0683Z" fill="#D1D7DC"/>
<mask id="mask3_149_15289" style="mask-type:alpha" maskUnits="userSpaceOnUse" x="4" y="13" width="19" height="24">
<path d="M4.31592 13.8281H22.7804V36.8715H4.31592V13.8281Z" fill="#D1D7DC"/>
</mask>
<g mask="url(#mask3_149_15289)">
<path d="M22.5535 14.499H14.2082C13.562 14.499 13.0087 14.9067 12.8001 15.4822L4.9917 36.8708H13.3985L21.2076 15.4829C21.309 15.2046 21.491 14.9627 21.7307 14.788C21.9704 14.6132 22.2568 14.5136 22.5535 14.5017V14.499Z" fill="#D1D7DC"/>
</g>
</g>
</g>
</g>
<defs>
<clipPath id="clip0_149_15289">
<rect width="115" height="44" fill="white" transform="translate(0 0.0102539)"/>
</clipPath>
<clipPath id="clip1_149_15289">
<rect width="115" height="44" fill="white" transform="translate(0 0.0102539)"/>
</clipPath>
</defs>
</svg>
