<svg width="115" height="45" viewBox="0 0 115 45" fill="none" xmlns="http://www.w3.org/2000/svg">
<g clip-path="url(#clip0_149_15317)">
<g clip-path="url(#clip1_149_15317)">
<path d="M5 13.0103V28.0298H11.9824V19.018H15.9723V28.0298H22.9544V13.0103H5Z" fill="#D1D7DC"/>
<path d="M29.3418 13.0103V28.2168H32.6306V18.6127L39.9194 28.2168H42.7342V13.0103H39.475V22.4069L32.3936 13.0103H29.3418ZM70.793 13.0103L64.482 28.2168H67.8597L69.2523 24.8375H75.2374L76.63 28.2168H80.0669L73.7856 13.0103H70.793ZM57.6969 13.7217V16.6563H56.334V19.4723H57.6969V24.9265C57.6969 27.599 59.0729 28.3946 61.0746 28.3946C62.1733 28.3946 62.9638 28.1527 63.6524 27.7425V25.1043C63.1771 25.3664 62.626 25.5193 62.0228 25.5193C61.2915 25.5193 60.9858 25.147 60.9858 24.3929V19.4723H63.682V16.6563H60.9858V13.7217H57.6969ZM50.0526 16.4488C46.6915 16.4488 44.3342 19.17 44.3342 22.4662V22.4958C44.3342 26.0303 46.9095 28.4835 50.3785 28.4835C52.4668 28.4835 54.0146 27.6559 55.0896 26.3197L53.2229 24.6597C52.3175 25.5015 51.5068 25.8454 50.4081 25.8454C48.9421 25.8454 47.9193 25.0794 47.5934 23.5926H55.6229C55.6478 23.2914 55.6525 22.9618 55.6525 22.7033C55.6525 19.4284 53.9068 16.4488 50.0526 16.4488ZM87.7705 16.4488C86.0686 16.4488 84.9522 17.2396 84.1558 18.3163V16.6563H80.8966V31.6553H84.1558V26.705C84.9309 27.6322 86.0271 28.4242 87.7705 28.4242C90.5071 28.4242 93.0149 26.3244 93.0149 22.4662V22.4069C93.0149 18.5498 90.4644 16.4488 87.7705 16.4488ZM101.222 16.4488C99.5215 16.4488 98.4335 17.2396 97.637 18.3163V16.6563H94.3482V31.6553H97.637V26.705C98.411 27.6322 99.4764 28.4242 101.222 28.4242C103.958 28.4242 106.467 26.3244 106.467 22.4662V22.4069C106.467 18.5498 103.915 16.4488 101.222 16.4488ZM106.141 16.6563V17.012H106.852V19.2352H107.237V17.012H107.978V16.6563H106.141ZM108.452 16.6563V19.2352H108.837V17.1009L109.607 19.2352H109.844L110.615 17.1009V19.2352H111V16.6563H110.407L109.726 18.6127L109.044 16.6563H108.452ZM72.2448 17.012L74.23 21.903H70.2301L72.2448 17.012ZM50.0526 19.087C51.4298 19.087 52.289 20.0497 52.4822 21.5176H47.5341C47.7925 20.0331 48.6932 19.087 50.0526 19.087ZM86.9113 19.2352C88.439 19.2352 89.7261 20.4896 89.726 22.4069V22.4662C89.726 24.406 88.439 25.6379 86.9113 25.6379C85.3836 25.6379 84.1261 24.3846 84.1261 22.4662V22.4069C84.1261 20.4896 85.3836 19.2352 86.9113 19.2352ZM100.393 19.2352C101.923 19.2352 103.208 20.4896 103.208 22.4069V22.4662C103.208 24.406 101.923 25.6379 100.393 25.6379C98.8661 25.6379 97.5778 24.3846 97.5778 22.4662V22.4069C97.5778 20.4896 98.8661 19.2352 100.393 19.2352Z" fill="#D1D7DC"/>
</g>
</g>
<defs>
<clipPath id="clip0_149_15317">
<rect width="115" height="44" fill="white" transform="translate(0 0.0102539)"/>
</clipPath>
<clipPath id="clip1_149_15317">
<rect width="115" height="44" fill="white" transform="translate(0 0.0102539)"/>
</clipPath>
</defs>
</svg>
