<svg width="25" height="25" viewBox="0 0 25 25" fill="none" xmlns="http://www.w3.org/2000/svg">
<path d="M11.1704 15.0415L15.0799 12.5357C15.335 12.3677 15.4626 12.1325 15.4626 11.83C15.4626 11.5275 15.335 11.2922 15.0799 11.1242L11.1704 8.61846C10.8947 8.43379 10.6107 8.41871 10.3184 8.57321C10.026 8.72771 9.87988 8.97287 9.87988 9.30871V14.3512C9.87988 14.687 10.026 14.9322 10.3184 15.0867C10.6107 15.2412 10.8947 15.2261 11.1704 15.0415ZM4.43763 19.33C3.93247 19.33 3.50488 19.155 3.15488 18.805C2.80488 18.455 2.62988 18.0274 2.62988 17.5222V6.13771C2.62988 5.63254 2.80488 5.20496 3.15488 4.85496C3.50488 4.50496 3.93247 4.32996 4.43763 4.32996H19.8221C20.3273 4.32996 20.7549 4.50496 21.1049 4.85496C21.4549 5.20496 21.6299 5.63254 21.6299 6.13771V17.5222C21.6299 18.0274 21.4549 18.455 21.1049 18.805C20.7549 19.155 20.3273 19.33 19.8221 19.33H15.6299V20.426C15.6299 20.6838 15.5436 20.8989 15.3711 21.0712C15.1988 21.2437 14.9837 21.33 14.7259 21.33H9.53388C9.27605 21.33 9.06097 21.2437 8.88863 21.0712C8.71613 20.8989 8.62988 20.6838 8.62988 20.426V19.33H4.43763ZM4.43763 17.83H19.8221C19.8991 17.83 19.9696 17.7979 20.0336 17.7337C20.0978 17.6697 20.1299 17.5992 20.1299 17.5222V6.13771C20.1299 6.06071 20.0978 5.99021 20.0336 5.92621C19.9696 5.86204 19.8991 5.82996 19.8221 5.82996H4.43763C4.36063 5.82996 4.29013 5.86204 4.22613 5.92621C4.16197 5.99021 4.12988 6.06071 4.12988 6.13771V17.5222C4.12988 17.5992 4.16197 17.6697 4.22613 17.7337C4.29013 17.7979 4.36063 17.83 4.43763 17.83Z" fill="#2A2B3F"/>
</svg>
