<svg width="25" height="25" viewBox="0 0 25 25" fill="none" xmlns="http://www.w3.org/2000/svg">
<path d="M12.13 17.1284L8.23976 19.4744C8.09476 19.5591 7.94951 19.5947 7.80401 19.5812C7.65851 19.5677 7.52685 19.5187 7.40901 19.4342C7.29101 19.3495 7.19993 19.2389 7.13576 19.1024C7.07176 18.9659 7.06151 18.8149 7.10501 18.6494L8.13776 14.2322L4.70326 11.2592C4.57493 11.1477 4.49318 11.0185 4.45801 10.8717C4.42268 10.7248 4.43193 10.5822 4.48576 10.4437C4.5396 10.3053 4.61718 10.1923 4.71851 10.1044C4.81985 10.0166 4.95835 9.95918 5.13401 9.93218L9.66651 9.53618L11.4263 5.36493C11.4903 5.20976 11.5873 5.09501 11.7175 5.02068C11.8477 4.94635 11.9852 4.90918 12.13 4.90918C12.2748 4.90918 12.4123 4.94635 12.5425 5.02068C12.6727 5.09501 12.7698 5.20976 12.8338 5.36493L14.5935 9.53618L19.126 9.93218C19.3017 9.95918 19.4402 10.0166 19.5415 10.1044C19.6428 10.1923 19.7204 10.3053 19.7743 10.4437C19.8281 10.5822 19.8373 10.7248 19.802 10.8717C19.7668 11.0185 19.6851 11.1477 19.5568 11.2592L16.1223 14.2322L17.155 18.6494C17.1985 18.8149 17.1883 18.9659 17.1243 19.1024C17.0601 19.2389 16.969 19.3495 16.851 19.4342C16.7332 19.5187 16.6015 19.5677 16.456 19.5812C16.3105 19.5947 16.1653 19.5591 16.0203 19.4744L12.13 17.1284Z" fill="#C4710D"/>
</svg>
