<svg width="25" height="25" viewBox="0 0 25 25" fill="none" xmlns="http://www.w3.org/2000/svg">
<path d="M4.59928 12.6455L8.65703 16.703C8.79536 16.8415 8.86619 17.0156 8.86953 17.2252C8.87269 17.4347 8.80186 17.612 8.65703 17.757C8.51203 17.9018 8.33636 17.9742 8.13003 17.9742C7.92369 17.9742 7.74803 17.9018 7.60303 17.757L3.10878 13.2627C3.01528 13.1691 2.94928 13.0703 2.91078 12.9665C2.87228 12.8627 2.85303 12.7505 2.85303 12.63C2.85303 12.5095 2.87228 12.3973 2.91078 12.2935C2.94928 12.1897 3.01528 12.0909 3.10878 11.9972L7.60303 7.50299C7.75186 7.35432 7.92853 7.27841 8.13303 7.27524C8.33736 7.27207 8.51711 7.34799 8.67228 7.50299C8.82744 7.65816 8.90503 7.83641 8.90503 8.03774C8.90503 8.23891 8.82744 8.41708 8.67228 8.57224L4.59928 12.6455ZM19.6608 12.6145L15.603 8.55699C15.4647 8.41849 15.3939 8.24441 15.3905 8.03474C15.3874 7.82524 15.4582 7.64799 15.603 7.50299C15.748 7.35816 15.9237 7.28574 16.13 7.28574C16.3364 7.28574 16.512 7.35816 16.657 7.50299L21.1513 11.9972C21.2448 12.0909 21.3108 12.1897 21.3493 12.2935C21.3878 12.3973 21.407 12.5095 21.407 12.63C21.407 12.7505 21.3878 12.8627 21.3493 12.9665C21.3108 13.0703 21.2448 13.1691 21.1513 13.2627L16.657 17.757C16.5082 17.9057 16.3341 17.979 16.1348 17.977C15.9354 17.9752 15.7582 17.8967 15.603 17.7415C15.448 17.5863 15.3705 17.4082 15.3705 17.207C15.3705 17.0057 15.448 16.8274 15.603 16.6722L19.6608 12.6145Z" fill="#2A2B3F"/>
</svg>
