<svg width="25" height="25" viewBox="0 0 25 25" fill="none" xmlns="http://www.w3.org/2000/svg">
<path d="M11.3799 19.24V15.813C10.5119 15.6873 9.74747 15.3479 9.08663 14.7947C8.4258 14.2416 7.97738 13.5464 7.74138 12.7092C6.58755 12.5721 5.61388 12.0823 4.82038 11.24C4.02672 10.3977 3.62988 9.39766 3.62988 8.23999V7.54774C3.62988 7.05057 3.80688 6.62499 4.16088 6.27099C4.51488 5.91699 4.94047 5.73999 5.43763 5.73999H7.45688V5.54774C7.45688 5.05057 7.63388 4.62499 7.98788 4.27099C8.34188 3.91699 8.76747 3.73999 9.26463 3.73999H14.9951C15.4923 3.73999 15.9179 3.91699 16.2719 4.27099C16.6259 4.62499 16.8029 5.05057 16.8029 5.54774V5.73999H18.8221C19.3193 5.73999 19.7449 5.91699 20.0989 6.27099C20.4529 6.62499 20.6299 7.05057 20.6299 7.54774V8.23999C20.6299 9.39766 20.233 10.3977 19.4394 11.24C18.6459 12.0823 17.6722 12.5721 16.5184 12.7092C16.2824 13.5464 15.834 14.2416 15.1731 14.7947C14.5123 15.3479 13.7479 15.6873 12.8799 15.813V19.24H15.6876C15.9001 19.24 16.0782 19.3119 16.2219 19.4557C16.3657 19.5996 16.4376 19.7777 16.4376 19.9902C16.4376 20.2029 16.3657 20.381 16.2219 20.5245C16.0782 20.6682 15.9001 20.74 15.6876 20.74H8.57213C8.35963 20.74 8.18155 20.6681 8.03788 20.5242C7.89405 20.3804 7.82213 20.2022 7.82213 19.9897C7.82213 19.7771 7.89405 19.599 8.03788 19.4555C8.18155 19.3118 8.35963 19.24 8.57213 19.24H11.3799ZM7.45688 11.0977V7.23999H5.43763C5.3478 7.23999 5.27405 7.26882 5.21638 7.32649C5.15872 7.38416 5.12988 7.45791 5.12988 7.54774V8.23999C5.12988 8.93099 5.34847 9.54191 5.78563 10.0727C6.2228 10.6034 6.77988 10.9451 7.45688 11.0977ZM12.1321 14.3747C13.0088 14.3747 13.7532 14.0681 14.3654 13.4547C14.9775 12.8414 15.2836 12.0967 15.2836 11.2207V5.54774C15.2836 5.45791 15.2548 5.38416 15.1971 5.32649C15.1395 5.26882 15.0658 5.23999 14.9761 5.23999H9.28363C9.19397 5.23999 9.1203 5.26882 9.06263 5.32649C9.00497 5.38416 8.97613 5.45791 8.97613 5.54774V11.2207C8.97613 12.0967 9.28297 12.8414 9.89663 13.4547C10.5103 14.0681 11.2555 14.3747 12.1321 14.3747ZM16.8029 11.0977C17.4799 10.9451 18.037 10.6034 18.4741 10.0727C18.9113 9.54191 19.1299 8.93099 19.1299 8.23999V7.54774C19.1299 7.45791 19.101 7.38416 19.0434 7.32649C18.9857 7.26882 18.912 7.23999 18.8221 7.23999H16.8029V11.0977Z" fill="#2A2B3F"/>
</svg>
