<svg width="92" height="36" viewBox="0 0 92 36" fill="none" xmlns="http://www.w3.org/2000/svg">
<g clip-path="url(#clip0_149_15482)">
<g clip-path="url(#clip1_149_15482)">
<g clip-path="url(#clip2_149_15482)">
<path d="M14.1347 9.13878L7.06669 5.05816L0 9.13878V5.05816L7.06755 0.977539L14.1355 5.05816V9.13878H14.1347Z" fill="#A435F0"/>
<path d="M0 12.5647H3.70223V21.5601C3.70223 23.8847 5.43726 25.0169 7.06797 25.0169C8.71065 25.0169 10.4337 23.8539 10.4337 21.5293V12.5643H14.1355V21.7739C14.1355 23.9151 13.463 25.5672 12.1166 26.6993C10.7698 27.8315 9.0869 28.3822 7.03719 28.3822C4.98704 28.3822 3.30417 27.8315 1.98858 26.6993C0.67255 25.5672 0 23.9767 0 21.8649V12.5647ZM46.1421 23.7441C45.0215 24.7416 43.7444 25.2307 42.2885 25.2307C39.6343 25.2307 37.8522 23.718 37.6512 21.375H49.6139C49.6139 21.375 49.6926 20.6177 49.6926 19.9076C49.6926 17.7048 48.9893 15.8689 47.5514 14.3698C46.1443 12.8704 44.3088 12.1363 42.0752 12.1363C39.7193 12.1363 37.7915 12.8704 36.2617 14.3698C34.7622 15.8689 33.9973 17.8266 33.9973 20.2744V20.3967C33.9973 22.8137 34.7622 24.7407 36.2617 26.1794C37.7607 27.6173 39.7493 28.3514 42.1663 28.3514C44.977 28.3514 47.214 27.2432 48.8922 25.3312L46.1421 23.7441ZM39.1062 16.2361C39.9314 15.5931 40.9417 15.257 42.0739 15.257C43.1445 15.257 44.0317 15.5931 44.7966 16.2669C45.5277 16.8805 45.9219 17.6338 45.9561 18.5005H37.7449C37.8633 17.6056 38.3161 16.8505 39.1062 16.2361ZM83.4103 30.4298C81.9066 33.9764 80.3353 35.1821 77.9264 35.1821H76.2572V31.9006H77.607C78.4361 31.9006 79.2065 31.5893 79.9411 29.8941L80.6752 28.1988L74.3418 12.5643H78.1051L82.6031 23.8236L87.2233 12.5643H90.9866C90.9858 12.5643 84.9576 26.7802 83.4103 30.4298ZM28.5481 6.65967V13.9615C27.3351 12.8738 25.4483 12.2273 23.6226 12.2273C21.4506 12.2273 19.6151 12.9927 18.1157 14.552C16.6474 16.0822 15.9133 17.9784 15.9133 20.2736C15.9133 22.5687 16.6474 24.4645 18.1161 26.0255C19.6151 27.5557 21.451 28.3206 23.623 28.3206C26.129 28.3206 27.7114 27.3368 28.5485 26.5647V27.9842H32.2195V6.6601H28.5485L28.5481 6.65967ZM27.4471 23.6402C26.5599 24.5273 25.4278 24.987 24.1122 24.987C22.7961 24.987 21.7255 24.5273 20.8388 23.6402C19.9824 22.7534 19.5535 21.6212 19.5535 20.2744C19.5535 18.928 19.9824 17.7959 20.8388 16.9087C21.7255 16.0219 22.7961 15.5623 24.1122 15.5623C25.4278 15.5623 26.5599 16.0219 27.4471 16.9091C28.3647 17.7959 28.8243 18.928 28.8243 20.2744C28.8243 21.6212 28.3647 22.7534 27.4471 23.6402ZM68.6339 12.2594C65.8453 12.2594 64.395 13.4164 63.4018 14.5306C63.005 13.7734 61.8866 12.2594 59.272 12.2594C57.0637 12.2594 55.7605 13.3753 55.1119 14.1714V12.566H51.4712V27.9854H55.1119V19.1127C55.1119 17.0318 56.3967 15.5328 58.1104 15.5328C59.8548 15.5328 60.8638 16.8484 60.8638 18.9588V27.9846H64.5045V19.111C64.5045 16.9997 65.7585 15.5311 67.5632 15.5311C69.3077 15.5311 70.3167 16.8467 70.3167 18.9571V27.9829H73.9882V18.4376C73.9882 14.4177 71.8277 12.2594 68.6339 12.2594Z" fill="white"/>
</g>
</g>
</g>
<defs>
<clipPath id="clip0_149_15482">
<rect width="91.07" height="34.2" fill="white" transform="translate(0 0.97998)"/>
</clipPath>
<clipPath id="clip1_149_15482">
<rect width="91.07" height="34.2" fill="white" transform="translate(0 0.97998)"/>
</clipPath>
<clipPath id="clip2_149_15482">
<rect width="91.07" height="34.2047" fill="white" transform="translate(0 0.977539)"/>
</clipPath>
</defs>
</svg>
