<svg width="44" height="45" viewBox="0 0 44 45" fill="none" xmlns="http://www.w3.org/2000/svg">
<g clip-path="url(#clip0_149_15313)">
<g clip-path="url(#clip1_149_15313)">
<path fill-rule="evenodd" clip-rule="evenodd" d="M21.9213 4.01025C25.4658 4.01025 28.9307 5.06131 31.8777 7.03053C34.8249 8.99974 37.1219 11.7987 38.4783 15.0734C39.8347 18.3481 40.1897 21.9515 39.4981 25.4278C38.8066 28.9042 37.0999 32.0975 34.5935 34.6038C32.0872 37.1102 28.8939 38.8169 25.4175 39.5084C21.9412 40.2 18.3378 39.845 15.0631 38.4886C11.7884 37.1322 8.98949 34.8352 7.02028 31.888C5.05106 28.941 4 25.4761 4 21.9316C4.02072 17.185 5.9155 12.6386 9.27191 9.28216C12.6283 5.92575 17.1747 4.03097 21.9213 4.01025ZM21.9213 6.26025C18.8313 6.26692 15.8126 7.18887 13.2463 8.9097C10.6799 10.6306 8.6808 13.0732 7.50142 15.9291C6.32203 18.7851 6.0152 21.9265 6.61965 24.9568C7.2241 27.987 8.71275 30.7702 10.8977 32.9552C13.0826 35.1401 15.8658 36.6287 18.896 37.2331C21.9263 37.8376 25.0676 37.5308 27.9237 36.3514C30.7796 35.172 33.2222 33.173 34.943 30.6065C36.6639 28.0402 37.5859 25.0215 37.5925 21.9316C37.5836 17.7801 35.929 13.8016 32.9913 10.8681C30.0537 7.93465 26.0727 6.28572 21.9213 6.28275V6.26025ZM11.4588 13.5165C12.507 12.2115 13.7888 11.1129 15.2387 10.2766L19.1875 21.1553H24.745L28.6713 10.3216C30.0231 11.1162 31.226 12.1402 32.2263 13.3478L26.6013 28.0628L24.5087 22.7528H19.12L17.0612 28.0628L11.4588 13.5165ZM34.4875 17.1728C35.6317 20.2519 35.6142 23.6427 34.4379 26.7098C33.2616 29.7768 31.0073 32.3098 28.0975 33.8341L34.4875 17.1728ZM25.3075 34.9253C23.0134 35.5136 20.6056 35.4942 18.3212 34.8691V34.5878L21.7863 25.5878L25.24 34.5878L25.3075 34.9253ZM15.475 33.6878C13.3629 32.5352 11.5998 30.8356 10.3707 28.7672C9.14147 26.6987 8.49145 24.3377 8.48875 21.9316C8.47693 20.3982 8.7359 18.8748 9.25375 17.4316L15.475 33.6878ZM21.9213 8.499C23.0791 8.4965 24.2324 8.64398 25.3525 8.93775L21.9775 18.3203L18.6025 8.9265C19.6862 8.64435 20.8014 8.50071 21.9213 8.499Z" fill="#D1D7DC"/>
</g>
</g>
<defs>
<clipPath id="clip0_149_15313">
<rect width="44" height="44" fill="white" transform="translate(0 0.0102539)"/>
</clipPath>
<clipPath id="clip1_149_15313">
<rect width="44" height="44" fill="white" transform="translate(0 0.0102539)"/>
</clipPath>
</defs>
</svg>
