<svg width="20" height="21" viewBox="0 0 20 21" fill="none" xmlns="http://www.w3.org/2000/svg">
<path d="M7.93271 13.2927C6.50966 13.2927 5.30452 12.7992 4.31729 11.8121C3.33021 10.8249 2.83667 9.61974 2.83667 8.19669C2.83667 6.77363 3.33021 5.56849 4.31729 4.58127C5.30452 3.59419 6.50966 3.10065 7.93271 3.10065C9.35577 3.10065 10.5609 3.59419 11.5481 4.58127C12.5352 5.56849 13.0288 6.77363 13.0288 8.19669C13.0288 8.79183 12.9289 9.36023 12.7292 9.9019C12.5293 10.4436 12.2627 10.9147 11.9294 11.3152L16.7244 16.1102C16.8398 16.2255 16.8988 16.3705 16.9015 16.5452C16.9041 16.72 16.8451 16.8677 16.7244 16.9884C16.6037 17.109 16.4573 17.1694 16.2852 17.1694C16.1133 17.1694 15.9669 17.109 15.8463 16.9884L11.0513 12.1934C10.6346 12.5374 10.1554 12.8066 9.61375 13.0011C9.07209 13.1955 8.51174 13.2927 7.93271 13.2927ZM7.93271 12.0429C9.00646 12.0429 9.91591 11.6703 10.661 10.925C11.4063 10.1799 11.779 9.27044 11.779 8.19669C11.779 7.12294 11.4063 6.21349 10.661 5.46835C9.91591 4.72308 9.00646 4.35044 7.93271 4.35044C6.85896 4.35044 5.94952 4.72308 5.20438 5.46835C4.4591 6.21349 4.08646 7.12294 4.08646 8.19669C4.08646 9.27044 4.4591 10.1799 5.20438 10.925C5.94952 11.6703 6.85896 12.0429 7.93271 12.0429Z" fill="#2A2B3F"/>
</svg>
