<svg width="91" height="34" viewBox="0 0 91 34" fill="none" xmlns="http://www.w3.org/2000/svg">
<g clip-path="url(#clip0_2_1282)">
<path d="M14.05 8.11055L7.024 4.05694L0 8.11055V4.05694L7.025 0.00332642L14.051 4.05694L14.05 8.11055Z" fill="#A435F0"/>
<path d="M0 11.5146H3.68V20.4503C3.68 22.7589 5.405 23.8843 7.025 23.8843C8.659 23.8843 10.371 22.729 10.371 20.4193V11.5146H14.051V20.6632C14.051 22.7899 13.382 24.431 12.044 25.5563C10.705 26.6806 9.033 27.2283 6.994 27.2283C4.957 27.2283 3.284 26.6816 1.977 25.5563C0.669 24.432 0 22.8519 0 20.7541V11.5146ZM45.866 22.62C44.752 23.6114 43.483 24.0972 42.036 24.0972C39.396 24.0972 37.626 22.594 37.426 20.2664H49.316C49.316 20.2664 49.396 19.5149 49.396 18.8093C49.396 16.6206 48.696 14.7966 47.266 13.3075C45.868 11.8184 44.044 11.0888 41.823 11.0888C39.482 11.0888 37.565 11.8184 36.044 13.3075C34.554 14.7966 33.794 16.7415 33.794 19.1741V19.294C33.794 21.6956 34.554 23.6104 36.044 25.0396C37.534 26.4678 39.511 27.1973 41.914 27.1973C44.708 27.1973 46.931 26.096 48.599 24.1971L45.866 22.62ZM38.872 15.1614C39.692 14.5228 40.697 14.189 41.822 14.189C42.886 14.189 43.768 14.5228 44.529 15.1924C45.255 15.802 45.647 16.5506 45.681 17.4111H37.52C37.638 16.5216 38.088 15.7721 38.873 15.1624L38.872 15.1614ZM82.91 29.2621C81.417 32.785 79.855 33.9833 77.46 33.9833H75.8V30.7233H77.142C77.966 30.7233 78.732 30.4134 79.462 28.7304L80.192 27.0454L73.896 11.5146H77.637L82.108 22.7L86.701 11.5146H90.441L82.91 29.2621ZM28.377 5.64902V12.9017C27.171 11.8224 25.295 11.1798 23.481 11.1798C21.321 11.1798 19.497 11.9393 18.007 13.4884C16.547 15.0085 15.817 16.8924 15.817 19.1721C15.817 21.4527 16.547 23.3366 18.007 24.8867C19.497 26.4068 21.322 27.1674 23.481 27.1674C25.971 27.1674 27.545 26.1889 28.377 25.4224V26.8325H32.027V5.65002L28.377 5.64902ZM27.282 22.5171C26.4 23.3986 25.275 23.8553 23.967 23.8553C22.659 23.8553 21.595 23.3986 20.713 22.5171C19.863 21.6356 19.436 20.5113 19.436 19.1741C19.436 17.8358 19.862 16.7115 20.713 15.83C21.595 14.9485 22.659 14.4928 23.967 14.4928C25.275 14.4928 26.4 14.9485 27.282 15.83C28.194 16.7115 28.652 17.8358 28.652 19.1741C28.652 20.5113 28.194 21.6356 27.282 22.5171ZM68.222 11.2107C65.45 11.2107 64.009 12.3601 63.022 13.4674C62.627 12.7149 61.515 11.2107 58.917 11.2107C56.721 11.2107 55.427 12.3201 54.781 13.1096V11.5166H51.163V26.8345H54.781V18.0197C54.781 15.953 56.059 14.4638 57.761 14.4638C59.496 14.4638 60.499 15.7711 60.499 17.8678V26.8335H64.118V18.0187C64.118 15.922 65.364 14.4628 67.158 14.4628C68.892 14.4628 69.895 15.7701 69.895 17.8658V26.8325H73.545V17.3501C73.545 13.3565 71.397 11.2117 68.222 11.2117V11.2107Z" fill="black"/>
</g>
<defs>
<clipPath id="clip0_2_1282">
<rect width="91" height="33.98" fill="white" transform="translate(0 0.00332642)"/>
</clipPath>
</defs>
</svg>
