<svg width="40" height="41" viewBox="0 0 40 41" fill="none" xmlns="http://www.w3.org/2000/svg">
<rect y="0.649902" width="40" height="40" rx="20" fill="#D1D2E0"/>
<path d="M24.95 16.6499C23.87 16.6499 22.85 17.0659 22.123 17.7879L20 19.6539L18.86 20.6499H18.868L16.85 22.4269C16.613 22.6618 16.3321 22.8477 16.0232 22.974C15.7144 23.1003 15.3837 23.1645 15.05 23.1629C13.648 23.1629 12.508 22.0399 12.508 20.6499C12.508 19.2599 13.648 18.1369 15.05 18.1369C15.733 18.1369 16.37 18.3969 16.88 18.9029L17.234 19.2129C17.3076 19.2791 17.3935 19.33 17.4869 19.3627C17.5803 19.3953 17.6793 19.4091 17.778 19.4032C17.8768 19.3973 17.9734 19.3719 18.0623 19.3283C18.1511 19.2848 18.2304 19.224 18.2956 19.1496C18.3608 19.0751 18.4105 18.9885 18.4419 18.8947C18.4733 18.8008 18.4858 18.7017 18.4786 18.603C18.4713 18.5043 18.4446 18.4081 18.3999 18.3198C18.3551 18.2316 18.2933 18.1531 18.218 18.0889L17.915 17.8249C17.1533 17.0692 16.1229 16.6466 15.05 16.6499C12.815 16.6499 11 18.4499 11 20.6499C11 22.8499 12.815 24.6499 15.05 24.6499C16.13 24.6499 17.15 24.2339 17.877 23.5129L20 21.6529L20.008 21.6609L21.14 20.6499H21.132L23.15 18.8729C23.387 18.638 23.6679 18.4521 23.9768 18.3258C24.2856 18.1996 24.6163 18.1354 24.95 18.1369C26.352 18.1369 27.493 19.2599 27.493 20.6499C27.493 22.0399 26.353 23.1629 24.95 23.1629C24.275 23.1629 23.63 22.9029 23.12 22.3969L22.758 22.0799C22.6849 22.0113 22.5988 21.9581 22.5047 21.9234C22.4106 21.8888 22.3105 21.8735 22.2103 21.8783C22.1102 21.8832 22.012 21.9082 21.9217 21.9518C21.8315 21.9954 21.7509 22.0568 21.6848 22.1322C21.6187 22.2076 21.5685 22.2955 21.5371 22.3907C21.5058 22.486 21.4939 22.5865 21.5022 22.6865C21.5105 22.7864 21.5389 22.8836 21.5856 22.9723C21.6323 23.0611 21.6964 23.1395 21.774 23.2029L22.085 23.4749C22.8484 24.2271 23.8783 24.647 24.95 24.6429C27.185 24.6429 29 22.8509 29 20.6429C29 18.4349 27.185 16.6499 24.95 16.6499Z" fill="#2A2B3F"/>
</svg>
