<svg width="20" height="20" viewBox="0 0 20 20" fill="none" xmlns="http://www.w3.org/2000/svg">
<path d="M4.375 15.7371C4.19792 15.7371 4.04951 15.6772 3.92979 15.5575C3.80993 15.4376 3.75 15.2891 3.75 15.1119C3.75 14.9348 3.80993 14.7864 3.92979 14.6667C4.04951 14.5471 4.19792 14.4873 4.375 14.4873H5.25646V8.26916C5.25646 7.14847 5.60236 6.15756 6.29417 5.29645C6.98583 4.43534 7.87389 3.88458 8.95833 3.64416V3.12499C8.95833 2.83569 9.05951 2.58972 9.26188 2.38708C9.46424 2.18458 9.70993 2.08333 9.99896 2.08333C10.2881 2.08333 10.5342 2.18458 10.7371 2.38708C10.9401 2.58972 11.0417 2.83569 11.0417 3.12499V3.64416C12.1261 3.88458 13.0142 4.43534 13.7058 5.29645C14.3976 6.15756 14.7435 7.14847 14.7435 8.26916V14.4873H15.625C15.8021 14.4873 15.9505 14.5471 16.0702 14.6669C16.1901 14.7867 16.25 14.9353 16.25 15.1125C16.25 15.2896 16.1901 15.438 16.0702 15.5577C15.9505 15.6773 15.8021 15.7371 15.625 15.7371H4.375ZM9.99854 18.0769C9.58396 18.0769 9.22951 17.9294 8.93521 17.6344C8.64076 17.3394 8.49354 16.9847 8.49354 16.5704H11.5065C11.5065 16.9861 11.3588 17.3411 11.0635 17.6354C10.7683 17.9297 10.4133 18.0769 9.99854 18.0769ZM6.50646 14.4873H13.4935V8.26916C13.4935 7.30444 13.1525 6.48104 12.4704 5.79895C11.7882 5.11673 10.9647 4.77562 10 4.77562C9.03528 4.77562 8.21181 5.11673 7.52958 5.79895C6.8475 6.48104 6.50646 7.30444 6.50646 8.26916V14.4873Z" fill="#2A2B3F"/>
</svg>
