<svg width="40" height="41" viewBox="0 0 40 41" fill="none" xmlns="http://www.w3.org/2000/svg">
<path d="M15.9615 28.2448C15.5566 28.2448 15.2124 28.1029 14.9288 27.8191C14.6451 27.5355 14.5033 27.1913 14.5033 26.7864C14.5033 26.3814 14.6451 26.0371 14.9288 25.7535C15.2124 25.4699 15.5566 25.3281 15.9615 25.3281C16.3665 25.3281 16.7108 25.4699 16.9944 25.7535C17.278 26.0371 17.4198 26.3814 17.4198 26.7864C17.4198 27.1913 17.278 27.5355 16.9944 27.8191C16.7108 28.1029 16.3665 28.2448 15.9615 28.2448ZM24.0385 28.2448C23.6335 28.2448 23.2892 28.1029 23.0056 27.8191C22.722 27.5355 22.5802 27.1913 22.5802 26.7864C22.5802 26.3814 22.722 26.0371 23.0056 25.7535C23.2892 25.4699 23.6335 25.3281 24.0385 25.3281C24.4434 25.3281 24.7876 25.4699 25.0712 25.7535C25.3549 26.0371 25.4967 26.3814 25.4967 26.7864C25.4967 27.1913 25.3549 27.5355 25.0712 27.8191C24.7876 28.1029 24.4434 28.2448 24.0385 28.2448ZM15.0127 15.0716L17.125 19.4948H22.806C22.8541 19.4948 22.8969 19.4827 22.9344 19.4587C22.9717 19.4347 23.0038 19.4013 23.0304 19.3585L25.266 15.296C25.2981 15.2373 25.3008 15.1852 25.274 15.1398C25.2473 15.0943 25.2019 15.0716 25.1377 15.0716H15.0127ZM14.4135 13.8216H25.984C26.3248 13.8216 26.5825 13.9667 26.7571 14.2568C26.9318 14.5468 26.9401 14.843 26.7821 15.1454L24.1121 19.9818C23.9754 20.2223 23.7947 20.4095 23.5698 20.5435C23.3448 20.6777 23.0983 20.7448 22.8302 20.7448H16.75L15.7852 22.5075C15.7424 22.5716 15.7411 22.6411 15.7812 22.7158C15.8212 22.7907 15.8813 22.8281 15.9615 22.8281H24.8719C25.0491 22.8281 25.1976 22.8879 25.3173 23.0075C25.4369 23.1272 25.4967 23.2757 25.4967 23.4531C25.4967 23.6305 25.4369 23.7789 25.3173 23.8985C25.1976 24.0182 25.0491 24.0781 24.8719 24.0781H15.9615C15.4059 24.0781 14.9885 23.8385 14.7092 23.3593C14.4297 22.8802 14.4199 22.4018 14.6796 21.9241L15.8685 19.7864L12.8367 13.405H11.875C11.6976 13.405 11.5492 13.3451 11.4296 13.2254C11.3099 13.1058 11.25 12.9573 11.25 12.78C11.25 12.6026 11.3099 12.4541 11.4296 12.3346C11.5492 12.2148 11.6976 12.155 11.875 12.155H13.149C13.2912 12.155 13.4237 12.1926 13.5465 12.2679C13.6694 12.3433 13.7628 12.4493 13.8269 12.586L14.4135 13.8216Z" fill="#2A2B3F"/>
<rect x="16" y="0.279999" width="24" height="22.4" rx="11.2" fill="#A435F0"/>
<path d="M26.9741 9.28195H27.8765C28.1656 9.28195 28.4038 9.23312 28.5913 9.13547C28.7788 9.03391 28.9175 8.89328 29.0073 8.71359C29.1011 8.53 29.148 8.31711 29.148 8.07492C29.148 7.85617 29.105 7.66281 29.0191 7.49484C28.937 7.32297 28.8101 7.19016 28.6382 7.09641C28.4663 6.99875 28.2495 6.94992 27.9878 6.94992C27.7808 6.94992 27.5894 6.99094 27.4136 7.07297C27.2378 7.155 27.0972 7.27023 26.9917 7.41867C26.8863 7.56711 26.8335 7.7468 26.8335 7.95773H25.1402C25.1402 7.48898 25.2652 7.08078 25.5152 6.73312C25.7691 6.38547 26.1089 6.11398 26.5347 5.91867C26.9605 5.72336 27.4292 5.6257 27.9409 5.6257C28.5191 5.6257 29.0249 5.71945 29.4585 5.90695C29.8921 6.09055 30.23 6.36203 30.4722 6.72141C30.7144 7.08078 30.8355 7.52609 30.8355 8.05734C30.8355 8.32687 30.773 8.58859 30.648 8.8425C30.523 9.0925 30.3433 9.31906 30.1089 9.52219C29.8784 9.72141 29.5972 9.88156 29.2652 10.0027C28.9331 10.1198 28.5601 10.1784 28.146 10.1784H26.9741V9.28195ZM26.9741 10.5652V9.69211H28.146C28.6109 9.69211 29.0191 9.74484 29.3706 9.85031C29.7222 9.95578 30.0171 10.1081 30.2554 10.3073C30.4937 10.5027 30.6734 10.7351 30.7945 11.0046C30.9156 11.2702 30.9761 11.5652 30.9761 11.8894C30.9761 12.2878 30.8999 12.6433 30.7476 12.9558C30.5952 13.2644 30.3804 13.5261 30.1031 13.7409C29.8296 13.9558 29.5093 14.1198 29.1421 14.2331C28.7749 14.3425 28.3745 14.3972 27.9409 14.3972C27.5816 14.3972 27.2281 14.3484 26.8804 14.2507C26.5366 14.1491 26.2241 13.9987 25.9429 13.7995C25.6656 13.5964 25.4429 13.3425 25.2749 13.0378C25.1109 12.7292 25.0288 12.364 25.0288 11.9421H26.7222C26.7222 12.1609 26.7769 12.3562 26.8863 12.528C26.9956 12.6999 27.146 12.8347 27.3374 12.9323C27.5327 13.03 27.7495 13.0788 27.9878 13.0788C28.2573 13.0788 28.4878 13.03 28.6792 12.9323C28.8745 12.8308 29.023 12.6902 29.1245 12.5105C29.23 12.3269 29.2827 12.114 29.2827 11.8718C29.2827 11.5593 29.2261 11.3093 29.1128 11.1218C28.9995 10.9304 28.8374 10.7898 28.6265 10.6999C28.4156 10.6101 28.1656 10.5652 27.8765 10.5652H26.9741Z" fill="white"/>
</svg>
