<svg width="20" height="20" viewBox="0 0 20 20" fill="none" xmlns="http://www.w3.org/2000/svg">
<path d="M9.99212 16.4146C9.81365 16.4146 9.63442 16.3826 9.45442 16.3185C9.27442 16.2544 9.11601 16.1539 8.97921 16.0173L7.78212 14.9292C6.30462 13.5819 4.98546 12.2585 3.82462 10.9587C2.66379 9.65902 2.08337 8.26666 2.08337 6.78166C2.08337 5.59902 2.48212 4.60888 3.27962 3.81124C4.07726 3.01374 5.0674 2.61499 6.25004 2.61499C6.92199 2.61499 7.58573 2.76992 8.24129 3.07978C8.89671 3.38964 9.48296 3.89284 10 4.58937C10.5171 3.89284 11.1034 3.38964 11.7588 3.07978C12.4143 2.76992 13.0781 2.61499 13.75 2.61499C14.9327 2.61499 15.9228 3.01374 16.7205 3.81124C17.518 4.60888 17.9167 5.59902 17.9167 6.78166C17.9167 8.28277 17.3264 9.69062 16.1459 11.0052C14.9653 12.3198 13.6491 13.632 12.1971 14.9419L11.0127 16.0173C10.8761 16.1539 10.7164 16.2544 10.5338 16.3185C10.351 16.3826 10.1705 16.4146 9.99212 16.4146ZM9.40067 5.85541C8.94983 5.16846 8.47518 4.66499 7.97671 4.34499C7.47837 4.02499 6.90282 3.86499 6.25004 3.86499C5.41671 3.86499 4.72226 4.14277 4.16671 4.69832C3.61115 5.25388 3.33337 5.94832 3.33337 6.78166C3.33337 7.45041 3.54893 8.14964 3.98004 8.87937C4.41115 9.60909 4.95226 10.3345 5.60337 11.0556C6.25449 11.7769 6.9599 12.4814 7.71962 13.1694C8.47921 13.8574 9.18324 14.4969 9.83171 15.0877C9.87976 15.1305 9.93587 15.1519 10 15.1519C10.0642 15.1519 10.1203 15.1305 10.1684 15.0877C10.8168 14.4969 11.5209 13.8574 12.2805 13.1694C13.0402 12.4814 13.7456 11.7769 14.3967 11.0556C15.0478 10.3345 15.5889 9.60909 16.02 8.87937C16.4512 8.14964 16.6667 7.45041 16.6667 6.78166C16.6667 5.94832 16.3889 5.25388 15.8334 4.69832C15.2778 4.14277 14.5834 3.86499 13.75 3.86499C13.0973 3.86499 12.5217 4.02499 12.0234 4.34499C11.5249 4.66499 11.0502 5.16846 10.5994 5.85541C10.5289 5.96221 10.4402 6.04235 10.3334 6.09582C10.2266 6.14916 10.1155 6.17582 10 6.17582C9.88462 6.17582 9.77351 6.14916 9.66671 6.09582C9.5599 6.04235 9.47122 5.96221 9.40067 5.85541Z" fill="#2A2B3F"/>
</svg>
