<svg width="40" height="41" viewBox="0 0 40 41" fill="none" xmlns="http://www.w3.org/2000/svg">
<rect y="0.649902" width="40" height="40" rx="20" fill="#D1D2E0"/>
<path d="M16.5 25.0943V16.2058C16.5 15.9418 16.5904 15.7251 16.7713 15.5558C16.9519 15.3866 17.1628 15.302 17.404 15.302C17.4808 15.302 17.5603 15.3129 17.6423 15.3348C17.7244 15.3564 17.8039 15.3891 17.8808 15.4328L24.8767 19.8865C25.0141 19.9802 25.117 20.0923 25.1855 20.223C25.2542 20.3538 25.2885 20.4962 25.2885 20.65C25.2885 20.8038 25.2542 20.9462 25.1855 21.077C25.117 21.2077 25.0141 21.3198 24.8767 21.4135L17.8808 25.8673C17.8039 25.9109 17.7244 25.9436 17.6423 25.9653C17.5603 25.9871 17.4808 25.998 17.404 25.998C17.1628 25.998 16.9519 25.9134 16.7713 25.7443C16.5904 25.5749 16.5 25.3583 16.5 25.0943ZM18 24L23.2693 20.65L18 17.3V24Z" fill="#2A2B3F"/>
</svg>
