<svg width="40" height="41" viewBox="0 0 40 41" fill="none" xmlns="http://www.w3.org/2000/svg">
<rect y="0.649902" width="40" height="40" rx="20" fill="#D1D2E0"/>
<path d="M19.9999 25.3384L16.1096 27.6844C15.9646 27.7691 15.8194 27.8046 15.6739 27.7911C15.5284 27.7776 15.3967 27.7286 15.2789 27.6441C15.1609 27.5595 15.0698 27.4489 15.0056 27.3124C14.9416 27.1759 14.9314 27.0249 14.9749 26.8594L16.0076 22.4421L12.5731 19.4691C12.4448 19.3576 12.3631 19.2285 12.3279 19.0816C12.2926 18.9348 12.3018 18.7921 12.3556 18.6536C12.4095 18.5153 12.4871 18.4022 12.5884 18.3144C12.6897 18.2266 12.8282 18.1691 13.0039 18.1421L17.5364 17.7461L19.2961 13.5749C19.3601 13.4197 19.4572 13.305 19.5874 13.2306C19.7176 13.1563 19.8551 13.1191 19.9999 13.1191C20.1447 13.1191 20.2822 13.1563 20.4124 13.2306C20.5426 13.305 20.6396 13.4197 20.7036 13.5749L22.4634 17.7461L26.9959 18.1421C27.1716 18.1691 27.3101 18.2266 27.4114 18.3144C27.5127 18.4022 27.5903 18.5153 27.6441 18.6536C27.698 18.7921 27.7072 18.9348 27.6719 19.0816C27.6367 19.2285 27.555 19.3576 27.4266 19.4691L23.9921 22.4421L25.0249 26.8594C25.0684 27.0249 25.0581 27.1759 24.9941 27.3124C24.93 27.4489 24.8389 27.5595 24.7209 27.6441C24.6031 27.7286 24.4714 27.7776 24.3259 27.7911C24.1804 27.8046 24.0351 27.7691 23.8901 27.6844L19.9999 25.3384Z" fill="#2A2B3F"/>
</svg>
